<svg width="80" height="48" viewBox="0 0 80 48" fill="none" xmlns="http://www.w3.org/2000/svg">
<mask id="mask0_793_2303" style="mask-type:alpha" maskUnits="userSpaceOnUse" x="0" y="0" width="80" height="48">
<g clip-path="url(#clip0_793_2303)">
<path d="M39.9998 0C29.337 0 22.6732 5.32989 20.0072 15.9887C24.0061 10.6588 28.671 8.66082 34.0019 9.99279C37.0439 10.7528 39.2178 12.9597 41.6248 15.4017C45.5447 19.3796 50.0816 23.9835 59.9924 23.9835C70.6541 23.9835 77.319 18.6536 79.984 7.99383C75.986 13.3237 71.3211 15.3227 65.9892 13.9907C62.9483 13.2307 60.7744 11.0238 58.3674 8.58182C54.4475 4.6039 49.9096 0 39.9998 0ZM20.0072 23.9835C9.34543 23.9835 2.68057 29.3134 0.015625 39.9732C4.01354 34.6433 8.67845 32.6443 14.0103 33.9773C17.0513 34.7383 19.2252 36.9442 21.6322 39.3852C25.5521 43.3631 30.09 47.968 39.9998 47.968C50.6626 47.968 57.3264 42.6381 59.9924 31.9783C55.9935 37.3082 51.3286 39.3072 45.9977 37.9742C42.9557 37.2152 40.7818 35.0073 38.3748 32.5663C34.4549 28.5884 29.918 23.9835 20.0072 23.9835Z" fill="#06B6D4"/>
</g>
</mask>
<g mask="url(#mask0_793_2303)">
<rect y="-2.33594" width="83.04" height="53.248" fill="#4F45E4"/>
</g>
<defs>
<clipPath id="clip0_793_2303">
<rect width="80" height="47.968" fill="white"/>
</clipPath>
</defs>
</svg>
