<svg width="79" height="25" viewBox="0 0 79 25" fill="none" xmlns="http://www.w3.org/2000/svg">
<rect width="32" height="25" rx="4" fill="white"/>
<path d="M5.2642 20V5.45455H11.0028C12.1013 5.45455 13.0388 5.65104 13.8153 6.04403C14.5966 6.43229 15.1908 6.9839 15.598 7.69886C16.0099 8.40909 16.2159 9.24479 16.2159 10.206C16.2159 11.1719 16.0076 12.0028 15.5909 12.6989C15.1742 13.3902 14.5705 13.9205 13.7798 14.2898C12.9938 14.6591 12.0421 14.8438 10.9247 14.8438H7.08239V12.3722H10.4276C11.0147 12.3722 11.5024 12.2917 11.8906 12.1307C12.2789 11.9697 12.5677 11.7282 12.7571 11.4062C12.9512 11.0843 13.0483 10.6842 13.0483 10.206C13.0483 9.72301 12.9512 9.31581 12.7571 8.98438C12.5677 8.65294 12.2765 8.40199 11.8835 8.23153C11.4953 8.05634 11.0052 7.96875 10.4134 7.96875H8.33949V20H5.2642ZM13.1193 13.3807L16.7344 20H13.3395L9.80256 13.3807H13.1193ZM23.1282 20.2131C22.006 20.2131 21.0401 19.9858 20.2305 19.5312C19.4255 19.072 18.8053 18.4233 18.3697 17.5852C17.9341 16.7424 17.7163 15.7457 17.7163 14.5952C17.7163 13.473 17.9341 12.4882 18.3697 11.6406C18.8053 10.7931 19.4184 10.1326 20.2092 9.65909C21.0046 9.18561 21.9374 8.94886 23.0075 8.94886C23.7272 8.94886 24.3971 9.06487 25.0174 9.29688C25.6424 9.52415 26.1869 9.86742 26.6509 10.3267C27.1197 10.786 27.4843 11.3636 27.7447 12.0597C28.0051 12.7509 28.1353 13.5606 28.1353 14.4886V15.3196H18.9237V13.4446H25.2873C25.2873 13.009 25.1926 12.6231 25.0032 12.2869C24.8138 11.9508 24.551 11.688 24.2148 11.4986C23.8834 11.3045 23.4975 11.2074 23.0572 11.2074C22.5979 11.2074 22.1907 11.3139 21.8356 11.527C21.4852 11.7353 21.2106 12.017 21.0117 12.3722C20.8129 12.7225 20.7111 13.1132 20.7063 13.544V15.3267C20.7063 15.8665 20.8058 16.3329 21.0046 16.7259C21.2082 17.1188 21.4947 17.4219 21.864 17.6349C22.2333 17.848 22.6713 17.9545 23.1779 17.9545C23.5141 17.9545 23.8219 17.9072 24.1012 17.8125C24.3806 17.7178 24.6197 17.5758 24.8185 17.3864C25.0174 17.197 25.1689 16.965 25.2731 16.6903L28.0714 16.875C27.9293 17.5473 27.6381 18.1345 27.1978 18.6364C26.7622 19.1335 26.1987 19.5218 25.5075 19.8011C24.8209 20.0758 24.0278 20.2131 23.1282 20.2131Z" fill="black"/>
<path d="M39.0739 9.09091V11.3636H32.3409V9.09091H39.0739ZM33.8821 20V8.30256C33.8821 7.51184 34.036 6.85606 34.3438 6.33523C34.6562 5.81439 35.0824 5.42377 35.6222 5.16335C36.1619 4.90293 36.7751 4.77273 37.4616 4.77273C37.9257 4.77273 38.3494 4.80824 38.733 4.87926C39.1212 4.95028 39.41 5.0142 39.5994 5.07102L39.0597 7.34375C38.9413 7.30587 38.7945 7.27036 38.6193 7.23722C38.4489 7.20407 38.2737 7.1875 38.0938 7.1875C37.6487 7.1875 37.3385 7.29167 37.1634 7.5C36.9882 7.7036 36.9006 7.99006 36.9006 8.35938V20H33.8821ZM45.4606 20.2131C44.3574 20.2131 43.4033 19.9787 42.5984 19.5099C41.7982 19.0365 41.1803 18.3783 40.7447 17.5355C40.3091 16.688 40.0913 15.7055 40.0913 14.5881C40.0913 13.4612 40.3091 12.4763 40.7447 11.6335C41.1803 10.786 41.7982 10.1278 42.5984 9.65909C43.4033 9.18561 44.3574 8.94886 45.4606 8.94886C46.5638 8.94886 47.5155 9.18561 48.3157 9.65909C49.1206 10.1278 49.7409 10.786 50.1765 11.6335C50.6121 12.4763 50.8299 13.4612 50.8299 14.5881C50.8299 15.7055 50.6121 16.688 50.1765 17.5355C49.7409 18.3783 49.1206 19.0365 48.3157 19.5099C47.5155 19.9787 46.5638 20.2131 45.4606 20.2131ZM45.4748 17.8693C45.9767 17.8693 46.3957 17.7273 46.7319 17.4432C47.0681 17.1544 47.3214 16.7614 47.4918 16.2642C47.667 15.767 47.7546 15.2012 47.7546 14.5668C47.7546 13.9323 47.667 13.3665 47.4918 12.8693C47.3214 12.3722 47.0681 11.9792 46.7319 11.6903C46.3957 11.4015 45.9767 11.2571 45.4748 11.2571C44.9682 11.2571 44.542 11.4015 44.1964 11.6903C43.8555 11.9792 43.5974 12.3722 43.4222 12.8693C43.2518 13.3665 43.1665 13.9323 43.1665 14.5668C43.1665 15.2012 43.2518 15.767 43.4222 16.2642C43.5974 16.7614 43.8555 17.1544 44.1964 17.4432C44.542 17.7273 44.9682 17.8693 45.4748 17.8693ZM52.7972 20V9.09091H55.7305V10.9943H55.8441C56.043 10.3172 56.3768 9.80587 56.8455 9.46023C57.3143 9.10985 57.854 8.93466 58.4648 8.93466C58.6164 8.93466 58.7797 8.94413 58.9549 8.96307C59.1301 8.98201 59.284 9.00805 59.4165 9.04119V11.7259C59.2745 11.6832 59.078 11.6454 58.8271 11.6122C58.5761 11.5791 58.3465 11.5625 58.1381 11.5625C57.6931 11.5625 57.2953 11.6596 56.945 11.8537C56.5993 12.0431 56.3247 12.3082 56.1211 12.6491C55.9222 12.9901 55.8228 13.383 55.8228 13.8281V20H52.7972ZM60.9808 20V9.09091H63.8643V11.0156H63.9922C64.2195 10.3764 64.5982 9.87216 65.1286 9.50284C65.6589 9.13352 66.2933 8.94886 67.032 8.94886C67.7801 8.94886 68.4169 9.13589 68.9425 9.50994C69.468 9.87926 69.8184 10.3812 69.9936 11.0156H70.1072C70.3298 10.3906 70.7322 9.8911 71.3146 9.51705C71.9018 9.13826 72.5954 8.94886 73.3956 8.94886C74.4136 8.94886 75.2398 9.2732 75.8743 9.92188C76.5135 10.5658 76.8331 11.4796 76.8331 12.6634V20H73.8146V13.2599C73.8146 12.6539 73.6536 12.1993 73.3317 11.8963C73.0097 11.5933 72.6072 11.4418 72.1243 11.4418C71.575 11.4418 71.1465 11.617 70.8388 11.9673C70.531 12.313 70.3771 12.7699 70.3771 13.3381V20H67.4439V13.196C67.4439 12.661 67.29 12.2348 66.9822 11.9176C66.6792 11.6004 66.2791 11.4418 65.782 11.4418C65.4458 11.4418 65.1428 11.527 64.8729 11.6974C64.6077 11.8632 64.397 12.0975 64.2408 12.4006C64.0845 12.6989 64.0064 13.0492 64.0064 13.4517V20H60.9808Z" fill="white"/>
</svg>
