<svg width="150" height="60" viewBox="0 0 150 60" fill="none" xmlns="http://www.w3.org/2000/svg">
<mask id="mask0_815_23855" style="mask-type:alpha" maskUnits="userSpaceOnUse" x="0" y="0" width="150" height="60">
<path d="M11.1758 22.0349L35.8817 13.7749V57.1399L11.1758 48.8799V22.0349Z" fill="#BFC6F1"/>
<path fill-rule="evenodd" clip-rule="evenodd" d="M61.8235 26.0927V40.62H67.9279V26.0927H72.7662V21.4258H57.0059V26.0927H61.8235ZM75.8235 32.7007C75.8235 38.1833 78.9853 40.971 84.5735 40.971H84.5838C89.9367 40.971 93.3647 38.4207 93.3647 32.6491V21.4258H87.2617V32.4322C87.2617 34.9515 86.725 36.1905 84.5853 36.1905C82.4117 36.1905 81.8764 34.9515 81.8764 32.4632V21.4258H75.8235V32.7007ZM97.6059 40.62V21.4258H105.234C110.751 21.4258 113.109 23.9038 113.109 28.0028V28.1061C113.109 32.1122 110.453 34.363 105.501 34.363H103.649V40.62H97.6059ZM104.915 30.2846H103.659V25.9688H104.946C106.531 25.9688 107.354 26.5573 107.354 28.0338V28.137C107.354 29.5619 106.521 30.2846 104.915 30.2846ZM116.259 40.62V21.4258H122.332V35.9221H129.303V40.62H116.259ZM132.729 21.4258V40.62H146.76V35.9531H138.782V33.0724H144.774V28.8082H138.782V26.0927H146.328V21.4258H132.729Z" fill="#1F2E41"/>
<path d="M2.94141 11.7102L27.6473 3.4502V46.8152L2.94141 38.5552V11.7102Z" fill="#4652AF"/>
</mask>
<g mask="url(#mask0_815_23855)">
<rect x="-16" y="-10" width="177" height="73" fill="white"/>
</g>
</svg>
